<svg width="357" height="71" viewBox="0 0 357 71" fill="none" xmlns="http://www.w3.org/2000/svg">
<path d="M50.3591 0.259766L0 57.4803L14.9789 58.0004L56.0422 11.6041L63.2676 20.1088L66.1127 17.5292L50.3591 0.259766Z" fill="#EEB537"/>
<path d="M7.74609 15.4697L8.00665 38.9244L24.7883 20.3617L24.2743 15.7228L7.74609 15.4697Z" fill="#EEB537"/>
<path d="M53.9711 58.0007L94.7739 11.6043L107.429 25.7812L112.084 25.5212L89.3513 0L38.9922 57.7406L53.9711 58.0007Z" fill="#EEB537"/>
<path d="M93.2 53.8C95.5667 53.8 97.45 52.9667 98.85 51.3C100.15 49.7 100.8 47.7 100.8 45.3C100.8 42.9 100.133 40.9333 98.8 39.4C97.4 37.7333 95.5333 36.9 93.2 36.9C90.9333 36.9 89.1333 37.7333 87.8 39.4C86.4667 41.0333 85.8 43 85.8 45.3C85.8 47.6667 86.4333 49.6333 87.7 51.2C89.0667 52.9333 90.9 53.8 93.2 53.8ZM105.05 33.6V70.4H100.55V53.35H100.45C98.45 56.3167 95.8 57.8 92.5 57.8C89.0333 57.8 86.2667 56.5333 84.2 54C82.2667 51.6667 81.3 48.7167 81.3 45.15C81.3 41.7833 82.2667 38.9333 84.2 36.6C86.3 34.1333 89 32.9 92.3 32.9C95.7 32.9 98.4167 34.4333 100.45 37.5H100.55V33.6H105.05ZM110.683 33.6H115.183V46.55C115.183 51.25 116.983 53.6 120.583 53.6C124.183 53.6 125.983 51.25 125.983 46.55V33.6H130.483V47.05C130.483 50.4167 129.683 53.0167 128.083 54.85C126.383 56.8167 123.883 57.8 120.583 57.8C117.283 57.8 114.783 56.8167 113.083 54.85C111.483 53.0167 110.683 50.4167 110.683 47.05V33.6ZM146.569 53.8C148.936 53.8 150.819 52.9667 152.219 51.3C153.519 49.7 154.169 47.7 154.169 45.3C154.169 42.9 153.502 40.9333 152.169 39.4C150.769 37.7333 148.902 36.9 146.569 36.9C144.302 36.9 142.502 37.7333 141.169 39.4C139.836 41.0333 139.169 43 139.169 45.3C139.169 47.6667 139.802 49.6333 141.069 51.2C142.436 52.9333 144.269 53.8 146.569 53.8ZM158.419 33.6V57H153.919V53.35H153.819C151.819 56.3167 149.169 57.8 145.869 57.8C142.402 57.8 139.636 56.5333 137.569 54C135.636 51.6667 134.669 48.7167 134.669 45.15C134.669 41.7833 135.652 38.9333 137.619 36.6C139.719 34.1333 142.419 32.9 145.719 32.9C149.086 32.9 151.786 34.4333 153.819 37.5H153.919V33.6H158.419ZM168.752 33.6V36.75H168.852C170.286 34.1833 172.636 32.9 175.902 32.9C181.436 32.9 184.202 36.2833 184.202 43.05V57H179.702V43.6C179.702 41.3333 179.419 39.7333 178.852 38.8C178.086 37.5333 176.652 36.9 174.552 36.9C172.019 36.9 170.336 37.9333 169.502 40C169.002 41.2667 168.752 43.35 168.752 46.25V57H164.252V33.6H168.752ZM195.124 13.6V57H190.624V13.6H195.124ZM208.458 53L197.758 33.6H203.008L210.908 48.45L218.258 33.6H223.308L204.358 70.4H199.258L208.458 53ZM230.877 37.8V57H226.377V37.8H223.927V33.6H226.377V24.65H230.877V33.6H235.277V37.8H230.877ZM242.539 33.6V37.4H242.689C243.889 34.4 246.022 32.9 249.089 32.9C250.355 32.9 251.589 33.2833 252.789 34.05L250.739 38.15C250.005 37.5167 249.089 37.2 247.989 37.2C244.355 37.2 242.539 39.9667 242.539 45.5V57H238.039V33.6H242.539ZM265.668 32.9C269.201 32.9 272.168 34.1 274.568 36.5C276.968 38.8667 278.168 41.8167 278.168 45.35C278.168 48.8833 276.968 51.85 274.568 54.25C272.168 56.6167 269.201 57.8 265.668 57.8C262.135 57.8 259.168 56.6167 256.768 54.25C254.368 51.85 253.168 48.8833 253.168 45.35C253.168 41.8167 254.368 38.8667 256.768 36.5C259.168 34.1 262.135 32.9 265.668 32.9ZM265.668 37.2C263.435 37.2 261.535 38 259.968 39.6C258.435 41.2 257.668 43.1167 257.668 45.35C257.668 47.5833 258.451 49.5 260.018 51.1C261.585 52.7 263.468 53.5 265.668 53.5C267.868 53.5 269.751 52.7 271.318 51.1C272.885 49.5 273.668 47.5833 273.668 45.35C273.668 43.1167 272.885 41.2 271.318 39.6C269.785 38 267.901 37.2 265.668 37.2ZM286.42 52C287.22 52 287.903 52.2833 288.47 52.85C289.037 53.4167 289.32 54.1 289.32 54.9C289.32 55.7 289.037 56.3833 288.47 56.95C287.903 57.5167 287.22 57.8 286.42 57.8C285.62 57.8 284.937 57.5167 284.37 56.95C283.803 56.3833 283.52 55.7 283.52 54.9C283.52 54.1 283.803 53.4167 284.37 52.85C284.937 52.2833 285.62 52 286.42 52ZM301.223 33.6V36.75H301.323C302.756 34.1833 305.106 32.9 308.373 32.9C313.906 32.9 316.673 36.2833 316.673 43.05V57H312.173V43.6C312.173 41.3333 311.89 39.7333 311.323 38.8C310.556 37.5333 309.123 36.9 307.023 36.9C304.49 36.9 302.806 37.9333 301.973 40C301.473 41.2667 301.223 43.35 301.223 46.25V57H296.723V33.6H301.223ZM343.445 46.05H325.595C325.628 48.15 326.295 49.9667 327.595 51.5C328.895 53.0333 330.578 53.8 332.645 53.8C335.478 53.8 337.812 52.2833 339.645 49.25L343.445 51.4C342.345 53.4 340.828 54.9667 338.895 56.1C336.995 57.2333 334.895 57.8 332.595 57.8C329.095 57.8 326.278 56.6167 324.145 54.25C322.112 51.9833 321.095 49.0667 321.095 45.5C321.095 41.7333 322.045 38.7333 323.945 36.5C325.945 34.1 328.795 32.9 332.495 32.9C336.062 32.9 338.828 34.1 340.795 36.5C342.562 38.7333 343.445 41.6833 343.445 45.35V46.05ZM325.845 42.65H338.945C338.678 40.85 337.978 39.4333 336.845 38.4C335.745 37.3333 334.295 36.8 332.495 36.8C330.762 36.8 329.278 37.35 328.045 38.45C326.845 39.5167 326.112 40.9167 325.845 42.65ZM352.459 37.8V57H347.959V37.8H345.509V33.6H347.959V24.65H352.459V33.6H356.859V37.8H352.459Z" fill="white"/>
</svg>
