<svg width="1343" height="228" viewBox="0 0 1343 228" fill="none" xmlns="http://www.w3.org/2000/svg">
<path d="M97.884 15C71.924 15 47.028 25.314 28.67 43.67C10.314 62.028 0 86.924 0 112.886C0 138.846 10.314 163.744 28.67 182.102C47.028 200.458 71.924 210.772 97.884 210.772C99.716 210.772 101.546 210.694 103.374 210.578C78.124 209.576 54.244 198.848 36.724 180.64C19.204 162.432 9.402 138.154 9.372 112.886C9.372 87.882 18.962 63.83 36.146 45.664C53.328 27.498 76.81 16.596 101.776 15.196C100.48 15.104 99.184 15.036 97.884 15ZM105.226 69.476L38.258 131.886L105.392 94.674L178.568 136.674L153.742 113.926H154.206V89.976H140.668V101.948L105.226 69.476ZM198.604 99.322C198.604 99.322 198.604 99.322 198.604 99.362C198.602 99.362 198.602 99.362 198.604 99.322ZM198.604 99.362C200.414 122.646 193.154 145.73 178.342 163.786C163.524 181.848 142.294 193.482 119.096 196.25C96.136 198.954 73.012 192.768 54.466 178.96C35.922 165.154 23.364 144.774 19.37 122C19.426 123.2 19.51 124.4 19.612 125.596C22.428 149.434 34.6 171.176 53.446 186.04C72.294 200.906 96.274 207.674 120.114 204.858C143.95 202.042 165.692 189.87 180.556 171.024C195.422 152.176 202.192 128.196 199.374 104.358C199.166 102.686 198.908 101.02 198.604 99.362ZM92.964 111.11V122.274H104.126V111.11H92.964ZM107.34 111.11V122.274H118.504V111.11H107.34ZM92.964 124.924V136.088H104.126V124.924H92.964ZM107.622 124.924V136.088H118.786V124.924H107.622Z" fill="#EEB537"/>
<path d="M1324.84 96.8002V173.6H1306.84V96.8002H1297.04V80.0002H1306.84V44.2002H1324.84V80.0002H1342.44V96.8002H1324.84Z" fill="white"/>
<path d="M1288.78 129.8H1217.38C1217.51 138.2 1220.18 145.467 1225.38 151.6C1230.58 157.734 1237.31 160.8 1245.58 160.8C1256.91 160.8 1266.25 154.734 1273.58 142.6L1288.78 151.2C1284.38 159.2 1278.31 165.467 1270.58 170C1262.98 174.534 1254.58 176.8 1245.38 176.8C1231.38 176.8 1220.11 172.067 1211.58 162.6C1203.45 153.534 1199.38 141.867 1199.38 127.6C1199.38 112.534 1203.18 100.534 1210.78 91.6002C1218.78 82.0002 1230.18 77.2002 1244.98 77.2002C1259.25 77.2002 1270.31 82.0002 1278.18 91.6002C1285.25 100.534 1288.78 112.334 1288.78 127V129.8ZM1218.38 116.2H1270.78C1269.71 109 1266.91 103.334 1262.38 99.2002C1257.98 94.9335 1252.18 92.8002 1244.98 92.8002C1238.05 92.8002 1232.11 95.0002 1227.18 99.4002C1222.38 103.667 1219.45 109.267 1218.38 116.2Z" fill="white"/>
<path d="M1119.89 80.0002V92.6002H1120.29C1126.02 82.3335 1135.42 77.2002 1148.49 77.2002C1170.62 77.2002 1181.69 90.7335 1181.69 117.8V173.6H1163.69V120C1163.69 110.934 1162.56 104.534 1160.29 100.8C1157.22 95.7335 1151.49 93.2002 1143.09 93.2002C1132.96 93.2002 1126.22 97.3335 1122.89 105.6C1120.89 110.667 1119.89 119 1119.89 130.6V173.6H1101.89V80.0002H1119.89Z" fill="white"/>
<path d="M1060.68 153.6C1063.88 153.6 1066.61 154.733 1068.88 157C1071.14 159.266 1072.28 162 1072.28 165.2C1072.28 168.4 1071.14 171.133 1068.88 173.4C1066.61 175.666 1063.88 176.8 1060.68 176.8C1057.48 176.8 1054.74 175.666 1052.48 173.4C1050.21 171.133 1049.08 168.4 1049.08 165.2C1049.08 162 1050.21 159.266 1052.48 157C1054.74 154.733 1057.48 153.6 1060.68 153.6Z" fill="white"/>
<path d="M977.672 77.2002C991.805 77.2002 1003.67 82.0002 1013.27 91.6002C1022.87 101.067 1027.67 112.867 1027.67 127C1027.67 141.134 1022.87 153 1013.27 162.6C1003.67 172.067 991.805 176.8 977.672 176.8C963.539 176.8 951.672 172.067 942.072 162.6C932.472 153 927.672 141.134 927.672 127C927.672 112.867 932.472 101.067 942.072 91.6002C951.672 82.0002 963.539 77.2002 977.672 77.2002ZM977.672 94.4002C968.739 94.4002 961.139 97.6002 954.872 104C948.739 110.4 945.672 118.067 945.672 127C945.672 135.934 948.805 143.6 955.072 150C961.339 156.4 968.872 159.6 977.672 159.6C986.472 159.6 994.005 156.4 1000.27 150C1006.54 143.6 1009.67 135.934 1009.67 127C1009.67 118.067 1006.54 110.4 1000.27 104C994.139 97.6002 986.605 94.4002 977.672 94.4002Z" fill="white"/>
<path d="M885.152 80.0002V95.2002H885.752C890.552 83.2002 899.086 77.2002 911.352 77.2002C916.419 77.2002 921.352 78.7335 926.152 81.8002L917.952 98.2002C915.019 95.6669 911.352 94.4002 906.952 94.4002C892.419 94.4002 885.152 105.467 885.152 127.6V173.6H867.152V80.0002H885.152Z" fill="white"/>
<path d="M838.507 96.8002V173.6H820.507V96.8002H810.707V80.0002H820.507V44.2002H838.507V80.0002H856.107V96.8002H838.507Z" fill="white"/>
<path d="M748.831 157.6L706.031 80H727.031L758.631 139.4L788.031 80H808.231L732.431 227.2H712.031L748.831 157.6Z" fill="white"/>
<path d="M695.496 0V173.6H677.496V0H695.496Z" fill="white"/>
<path d="M590.008 80.0002V92.6002H590.408C596.141 82.3335 605.541 77.2002 618.608 77.2002C640.741 77.2002 651.808 90.7335 651.808 117.8V173.6H633.808V120C633.808 110.934 632.674 104.534 630.408 100.8C627.341 95.7335 621.608 93.2002 613.208 93.2002C603.074 93.2002 596.341 97.3335 593.008 105.6C591.008 110.667 590.008 119 590.008 130.6V173.6H572.008V80.0002H590.008Z" fill="white"/>
<path d="M501.276 160.8C510.742 160.8 518.276 157.467 523.876 150.8C529.076 144.4 531.676 136.4 531.676 126.8C531.676 117.2 529.009 109.334 523.676 103.2C518.076 96.5335 510.609 93.2002 501.276 93.2002C492.209 93.2002 485.009 96.5335 479.676 103.2C474.342 109.734 471.676 117.6 471.676 126.8C471.676 136.267 474.209 144.134 479.276 150.4C484.742 157.334 492.076 160.8 501.276 160.8ZM548.676 80.0002V173.6H530.676V159H530.276C522.276 170.867 511.676 176.8 498.476 176.8C484.609 176.8 473.542 171.734 465.276 161.6C457.542 152.267 453.676 140.467 453.676 126.2C453.676 112.734 457.609 101.334 465.476 92.0002C473.876 82.1335 484.676 77.2002 497.876 77.2002C511.342 77.2002 522.142 83.3335 530.276 95.6002H530.676V80.0002H548.676Z" fill="white"/>
<path d="M357.73 80H375.73V131.8C375.73 150.6 382.93 160 397.33 160C411.73 160 418.93 150.6 418.93 131.8V80H436.93V133.8C436.93 147.267 433.73 157.667 427.33 165C420.53 172.867 410.53 176.8 397.33 176.8C384.13 176.8 374.13 172.867 367.33 165C360.93 157.667 357.73 147.267 357.73 133.8V80Z" fill="white"/>
<path d="M287.799 160.8C297.266 160.8 304.799 157.467 310.399 150.8C315.599 144.4 318.199 136.4 318.199 126.8C318.199 117.2 315.533 109.334 310.199 103.2C304.599 96.5335 297.133 93.2002 287.799 93.2002C278.733 93.2002 271.533 96.5335 266.199 103.2C260.866 109.734 258.199 117.6 258.199 126.8C258.199 136.267 260.733 144.134 265.799 150.4C271.266 157.334 278.599 160.8 287.799 160.8ZM335.199 80.0002V227.2H317.199V159H316.799C308.799 170.867 298.199 176.8 284.999 176.8C271.133 176.8 260.066 171.734 251.799 161.6C244.066 152.267 240.199 140.467 240.199 126.2C240.199 112.734 244.066 101.334 251.799 92.0002C260.199 82.1335 270.999 77.2002 284.199 77.2002C297.799 77.2002 308.666 83.3335 316.799 95.6002H317.199V80.0002H335.199Z" fill="white"/>
</svg>
